# xmcd
#
# Track frame offsets:
#	150
#	24332
#	48201
#	75803
#	106636
#	132266
#	157124
#	181567
#	213806
#	236642
#	265183
#	286546
#	309541
#
# Disc length: 4300 seconds
#
# Revision: 1
# Processed by: cddbd v1.5.2PL0 Copyright (c) Steve Scherf et al.
# Submitted via: EasyCDDAExtractor 15.2.5.1
#
DISCID=9110ca0d
DTITLE=Various Artist - Fabulous House Vol.1 CD2
DYEAR=2008
DGENRE=House
TTITLE0=Klaas - The Way (At Night remix)
TTITLE1=Big Bass vs. Michelle Narine - What You Do (Playing with Stones) (Plas
TTITLE1=tik Funk remix)
TTITLE2=Yves Larock - Rise Up (original mix)
TTITLE3=Ian Carey feat. Michelle Shellers - Kepp on Rising (vocal remix)
TTITLE4=Paul Attrax feat. Jahmar - Be Love (Phunk Foundation dub mix)
TTITLE5=Weekend Warriors - Endless (Weekend mix)
TTITLE6=Da Funk - Here I Am (original mix)
TTITLE7=Luckystars - Her Solar Soul (original Unreleased mix)
TTITLE8=Brazilian Soul Crew - Brazilian Soul (Can 7 and Henri Kohn mix)
TTITLE9=Jon Silva - Virginia (Being Young edit)
TTITLE10=Bionik Phunk vs. Martin Brodin feat. Julie Thompson - Personal Jesus 
TTITLE10=(original mix)
TTITLE11=Pompero - Pompero (extended mix)
TTITLE12=Dr. Kucho! and Andy Sherman - Lies to Yourself
EXTD=
EXTT0=
EXTT1=
EXTT2=
EXTT3=
EXTT4=
EXTT5=
EXTT6=
EXTT7=
EXTT8=
EXTT9=
EXTT10=
EXTT11=
EXTT12=
PLAYORDER=
